<svg id="Layer_1" data-name="Layer 1" xmlns="http://www.w3.org/2000/svg" viewBox="0 0 40 40"><defs><style>.cls-1{fill:#0042c7;}.cls-2{fill:none;stroke:#000;stroke-miterlimit:10;}</style></defs><path class="cls-1" d="M17,12.71l-1.29,7.36s3.47-1.17,3.8-1.31a26.59,26.59,0,0,1,3.69-.35c3.57-.05,7.34,2.62,7.7,2.68,3.63.53,7.94-1.6,8.12-2.05s.56-6,.28-5.87-6.6.16-8.29-.59S28.67,9.51,26,9.85C20.82,10.5,18.77,11.53,17,12.71Z"/><path class="cls-2" d="M19.92,11.25s4.64-2.35,7.85-1.88,4.95,3.5,6.45,3.68c4.3.53,6.22-.91,6.22-.91"/><path class="cls-2" d="M40,21.16s-5.75,2.5-7.26,2.38-4.75-3.33-8-3.79-7.86,1.87-7.86,1.87"/><polyline class="cls-2" points="18.7 11.68 16.27 13.2 13.54 35.67"/></svg>